<svg width="777" height="611" viewBox="0 0 777 611" fill="none" xmlns="http://www.w3.org/2000/svg">
<g opacity="0.7" clip-path="url(#clip0_4_126)">
<path d="M320.159 143.778H316.631V52.7085C316.631 45.7867 315.184 38.9327 312.373 32.5378C309.562 26.1429 305.442 20.3324 300.248 15.4379C295.054 10.5435 288.887 6.66099 282.101 4.01215C275.314 1.36331 268.04 -2.1655e-05 260.695 2.57984e-10H55.9365C48.5908 -2.1655e-05 41.317 1.36331 34.5305 4.01215C27.744 6.66099 21.5776 10.5435 16.3834 15.4379C11.1892 20.3324 7.06895 26.1429 4.25788 32.5378C1.44681 38.9327 -1.14907e-05 45.7867 0 52.7085V552.322C-6.89438e-06 559.244 1.44683 566.098 4.25789 572.492C7.06896 578.887 11.1892 584.698 16.3834 589.592C21.5776 594.487 27.744 598.369 34.5305 601.018C41.317 603.667 48.5908 605.03 55.9365 605.03H260.695C268.04 605.03 275.314 603.667 282.101 601.018C288.887 598.369 295.054 594.487 300.248 589.592C305.442 584.698 309.562 578.887 312.373 572.492C315.184 566.098 316.631 559.244 316.631 552.322V208.602H320.159V143.778Z" fill="#E6E6E6"/>
<path d="M262.952 13.7129H236.224C237.453 16.5525 237.922 19.6333 237.59 22.6839C237.258 25.7346 236.135 28.6615 234.32 31.2068C232.504 33.7521 230.053 35.8377 227.18 37.2798C224.308 38.7219 221.104 39.4763 217.849 39.4765H100.546C97.2914 39.4763 94.0869 38.7219 91.2147 37.2798C88.3425 35.8377 85.8907 33.7521 84.0754 31.2068C82.2601 28.6615 81.1369 25.7346 80.8048 22.6839C80.4728 19.6333 80.9419 16.5525 82.1711 13.7129H57.2073C51.7217 13.7129 46.2897 14.731 41.2216 16.7091C36.1535 18.6873 31.5486 21.5866 27.6696 25.2417C23.7907 28.8968 20.7137 33.2361 18.6144 38.0117C16.5152 42.7873 15.4347 47.9058 15.4347 53.0749V551.955C15.4347 557.124 16.5152 562.243 18.6144 567.018C20.7137 571.794 23.7907 576.133 27.6696 579.789C31.5486 583.444 36.1535 586.343 41.2216 588.321C46.2897 590.299 51.7217 591.317 57.2073 591.317H262.952C268.437 591.317 273.869 590.299 278.938 588.321C284.006 586.343 288.611 583.444 292.49 579.789C296.368 576.133 299.445 571.794 301.545 567.018C303.644 562.243 304.724 557.124 304.724 551.955V53.0749C304.724 47.9058 303.644 42.7873 301.545 38.0117C299.445 33.2361 296.368 28.8968 292.49 25.2417C288.611 21.5866 284.006 18.6873 278.937 16.7091C273.869 14.731 268.437 13.7129 262.952 13.7129Z" fill="white"/>
<path d="M99.4634 115.13H87.179C86.747 115.13 86.3328 115.292 86.0273 115.579C85.7219 115.867 85.5503 116.258 85.5503 116.665V121.745C85.5503 122.152 85.7219 122.543 86.0273 122.831C86.3328 123.118 86.747 123.28 87.179 123.28H89.2147V130.893H97.4277V123.28H99.4634C99.8953 123.28 100.31 123.118 100.615 122.831C100.92 122.543 101.092 122.152 101.092 121.745V116.665C101.092 116.258 100.92 115.867 100.615 115.579C100.31 115.292 99.8953 115.13 99.4634 115.13Z" fill="#E6E6E6"/>
<path d="M111.767 161.629C104.244 151.256 100.398 138.905 100.78 126.346C100.787 126.056 100.687 125.773 100.498 125.545C100.308 125.316 100.041 125.157 99.7405 125.093V122.898H86.7666V125.063H86.5879C86.2348 125.063 85.8964 125.196 85.6471 125.431C85.3977 125.667 85.2579 125.986 85.2584 126.319C85.2584 126.349 85.2596 126.38 85.262 126.41C86.2841 139.836 82.8327 151.876 74.9078 162.53C74.4518 163.142 74.2188 163.877 74.2438 164.625L75.6625 205.975C75.6966 206.897 76.1074 207.772 76.8091 208.415C77.5109 209.059 78.4494 209.423 79.4288 209.43H108.774C109.764 209.422 110.713 209.051 111.417 208.394C112.12 207.737 112.524 206.847 112.542 205.914L113.089 165.767C113.105 164.293 112.644 162.85 111.767 161.629Z" fill="#E6E6E6"/>
<path d="M107.122 175.365H81.5795C81.2014 175.365 80.8278 175.442 80.4842 175.591C80.1407 175.739 79.8354 175.956 79.5892 176.227C79.343 176.497 79.1618 176.815 79.0579 177.157C78.9541 177.5 78.9301 177.859 78.9876 178.212L82.8474 201.853H105.011L109.7 178.291C109.771 177.934 109.757 177.567 109.661 177.216C109.564 176.864 109.386 176.537 109.14 176.258C108.894 175.978 108.586 175.753 108.237 175.599C107.888 175.445 107.507 175.365 107.122 175.365Z" fill="white"/>
<path d="M236.212 239H223.928C223.496 239 223.082 239.161 222.776 239.449C222.471 239.737 222.299 240.127 222.299 240.534V245.615C222.299 246.022 222.471 246.412 222.776 246.7C223.082 246.988 223.496 247.15 223.928 247.15H225.963V254.763H234.176V247.15H236.212C236.644 247.15 237.058 246.988 237.364 246.7C237.669 246.412 237.841 246.022 237.841 245.615V240.534C237.841 240.127 237.669 239.737 237.364 239.449C237.058 239.161 236.644 239 236.212 239Z" fill="#E6E6E6"/>
<path d="M248.516 285.499C240.993 275.126 237.147 262.775 237.529 250.215C237.536 249.926 237.436 249.643 237.247 249.414C237.057 249.186 236.789 249.027 236.489 248.963V246.768H223.515V248.932H223.337C223.162 248.933 222.989 248.965 222.827 249.029C222.666 249.092 222.519 249.184 222.396 249.301C222.272 249.418 222.174 249.556 222.108 249.708C222.041 249.861 222.007 250.024 222.007 250.189C222.007 250.219 222.008 250.249 222.011 250.28C223.033 263.706 219.581 275.745 211.657 286.4C211.201 287.012 210.968 287.747 210.993 288.495L212.411 329.845C212.445 330.767 212.856 331.641 213.558 332.285C214.26 332.929 215.198 333.292 216.178 333.3H245.523C246.513 333.292 247.461 332.92 248.165 332.264C248.869 331.607 249.273 330.717 249.291 329.784L249.838 289.636C249.854 288.163 249.393 286.719 248.516 285.499Z" fill="#E6E6E6"/>
<path d="M243.871 299.234H218.328C217.95 299.234 217.577 299.311 217.233 299.46C216.889 299.609 216.584 299.826 216.338 300.096C216.092 300.367 215.911 300.684 215.807 301.027C215.703 301.369 215.679 301.729 215.736 302.081L219.596 325.722H241.76L246.448 302.161C246.519 301.804 246.506 301.437 246.409 301.085C246.313 300.734 246.135 300.407 245.889 300.127C245.643 299.848 245.334 299.623 244.986 299.469C244.637 299.314 244.256 299.234 243.871 299.234H243.871Z" fill="white"/>
<path d="M82.1931 414.115H76.3661C76.1612 414.115 75.9647 414.191 75.8198 414.328C75.6749 414.464 75.5935 414.649 75.5935 414.842V417.253C75.5935 417.446 75.6749 417.631 75.8198 417.767C75.9647 417.904 76.1612 417.981 76.3661 417.981H77.3317V421.592H81.2275V417.981H82.1931C82.398 417.981 82.5945 417.904 82.7394 417.767C82.8843 417.631 82.9657 417.446 82.9657 417.253V414.842C82.9657 414.649 82.8843 414.464 82.7394 414.328C82.5945 414.191 82.398 414.115 82.1931 414.115Z" fill="#E6E6E6"/>
<path d="M88.0295 436.171C84.4609 431.251 82.6365 425.392 82.8178 419.435C82.821 419.297 82.7737 419.163 82.6838 419.055C82.5939 418.946 82.467 418.871 82.3246 418.841V417.799H76.1705V418.826H76.0857C76.0028 418.826 75.9207 418.842 75.8441 418.872C75.7675 418.902 75.698 418.946 75.6394 419.001C75.5809 419.056 75.5344 419.122 75.5028 419.194C75.4712 419.267 75.4549 419.344 75.4551 419.422C75.4551 419.437 75.4556 419.451 75.4568 419.465C76.0248 425.544 74.2843 431.616 70.5453 436.599C70.329 436.889 70.2185 437.238 70.2304 437.592L70.9033 457.207C70.9194 457.644 71.1143 458.059 71.4472 458.364C71.7801 458.67 72.2252 458.842 72.6898 458.845H86.6095C87.0793 458.842 87.5291 458.666 87.863 458.354C88.197 458.043 88.3886 457.62 88.3971 457.178L88.6564 438.134C88.6641 437.435 88.4454 436.75 88.0295 436.171Z" fill="#E6E6E6"/>
<path d="M86.0262 443.382H72.7445V449.639H86.0262V443.382Z" fill="white"/>
<path d="M109.318 414.115H103.491C103.286 414.115 103.09 414.191 102.945 414.328C102.8 414.464 102.719 414.649 102.719 414.842V417.253C102.719 417.446 102.8 417.631 102.945 417.767C103.09 417.904 103.286 417.981 103.491 417.981H104.457V421.592H108.352V417.981H109.318C109.523 417.981 109.72 417.904 109.864 417.767C110.009 417.631 110.091 417.446 110.091 417.253V414.842C110.091 414.649 110.009 414.464 109.864 414.328C109.72 414.191 109.523 414.115 109.318 414.115Z" fill="#E6E6E6"/>
<path d="M115.155 436.171C111.586 431.251 109.762 425.392 109.943 419.435C109.946 419.297 109.899 419.163 109.809 419.055C109.719 418.946 109.592 418.871 109.45 418.841V417.799H103.295V418.826H103.211C103.128 418.826 103.046 418.842 102.969 418.872C102.893 418.902 102.823 418.946 102.764 419.001C102.706 419.056 102.659 419.122 102.628 419.194C102.596 419.267 102.58 419.344 102.58 419.422C102.58 419.437 102.581 419.451 102.582 419.465C103.15 425.544 101.409 431.616 97.6703 436.599C97.454 436.889 97.3435 437.238 97.3554 437.592L98.0282 457.207C98.0444 457.644 98.2393 458.059 98.5722 458.364C98.905 458.67 99.3502 458.842 99.8148 458.845H113.734C114.204 458.842 114.654 458.666 114.988 458.354C115.322 458.043 115.514 457.62 115.522 457.178L115.781 438.134C115.789 437.435 115.57 436.75 115.155 436.171Z" fill="#E6E6E6"/>
<path d="M113.151 443.382H99.8695V449.639H113.151V443.382Z" fill="white"/>
<path d="M136.443 414.115H130.616C130.411 414.115 130.215 414.191 130.07 414.328C129.925 414.464 129.844 414.649 129.844 414.842V417.253C129.844 417.446 129.925 417.631 130.07 417.767C130.215 417.904 130.411 417.981 130.616 417.981H131.582V421.592H135.477V417.981H136.443C136.648 417.981 136.845 417.904 136.989 417.767C137.134 417.631 137.216 417.446 137.216 417.253V414.842C137.216 414.649 137.134 414.464 136.989 414.328C136.845 414.191 136.648 414.115 136.443 414.115Z" fill="#E6E6E6"/>
<path d="M142.28 436.171C138.711 431.251 136.887 425.392 137.068 419.435C137.071 419.297 137.024 419.163 136.934 419.055C136.844 418.946 136.717 418.871 136.575 418.841V417.799H130.42V418.826H130.336C130.253 418.826 130.171 418.842 130.094 418.872C130.018 418.902 129.948 418.946 129.889 419.001C129.831 419.056 129.784 419.122 129.753 419.194C129.721 419.267 129.705 419.344 129.705 419.422C129.705 419.437 129.706 419.451 129.707 419.465C130.275 425.544 128.534 431.616 124.795 436.599C124.579 436.889 124.468 437.238 124.48 437.592L125.153 457.207C125.169 457.644 125.364 458.059 125.697 458.364C126.03 458.67 126.475 458.842 126.94 458.845H140.859C141.329 458.842 141.779 458.666 142.113 458.354C142.447 458.043 142.639 457.62 142.647 457.178L142.906 438.134C142.914 437.435 142.695 436.75 142.28 436.171Z" fill="#E6E6E6"/>
<path d="M140.276 443.382H126.995V449.639H140.276V443.382Z" fill="white"/>
<path d="M214.871 366.194H202.587C202.373 366.194 202.161 366.234 201.964 366.311C201.766 366.388 201.587 366.501 201.435 366.644C201.284 366.786 201.164 366.956 201.082 367.142C201 367.328 200.958 367.527 200.958 367.729V372.81C200.958 373.217 201.13 373.607 201.435 373.895C201.741 374.183 202.155 374.345 202.587 374.345H204.623V381.957H212.836V374.345H214.871C215.303 374.345 215.718 374.183 216.023 373.895C216.328 373.607 216.5 373.217 216.5 372.81V367.729C216.5 367.527 216.458 367.328 216.376 367.142C216.294 366.956 216.174 366.786 216.023 366.644C215.872 366.501 215.692 366.388 215.495 366.311C215.297 366.234 215.085 366.194 214.871 366.194Z" fill="#E6E6E6"/>
<path d="M227.175 412.694C219.652 402.321 215.806 389.97 216.188 377.41C216.195 377.121 216.095 376.837 215.906 376.609C215.716 376.381 215.449 376.221 215.149 376.158V373.962H202.175V376.127H201.996C201.821 376.128 201.648 376.16 201.487 376.223C201.325 376.287 201.179 376.379 201.055 376.496C200.932 376.612 200.834 376.751 200.767 376.903C200.7 377.055 200.666 377.219 200.666 377.383C200.666 377.414 200.668 377.444 200.67 377.475C201.692 390.9 198.241 402.94 190.316 413.594C189.86 414.207 189.627 414.942 189.652 415.689L191.07 457.04C191.105 457.962 191.515 458.836 192.217 459.48C192.919 460.124 193.857 460.487 194.837 460.494H224.182C225.172 460.487 226.121 460.115 226.824 459.458C227.528 458.802 227.932 457.912 227.95 456.979L228.497 416.831C228.513 415.357 228.052 413.914 227.175 412.694Z" fill="#E6E6E6"/>
<path d="M222.53 426.429H196.987C196.609 426.429 196.236 426.506 195.892 426.655C195.549 426.804 195.243 427.021 194.997 427.291C194.751 427.562 194.57 427.879 194.466 428.222C194.362 428.564 194.338 428.924 194.396 429.276L198.255 452.917H220.419L225.108 429.356C225.179 428.999 225.165 428.632 225.069 428.28C224.972 427.929 224.794 427.602 224.548 427.322C224.302 427.043 223.994 426.818 223.645 426.664C223.296 426.509 222.915 426.429 222.53 426.429Z" fill="white"/>
<path d="M221.578 214.753H148.351C153.471 188.671 152.293 157.176 148.351 123.306H221.578C217.741 157.177 216.594 188.671 221.578 214.753Z" fill="#E6E6E6"/>
<path d="M185.405 183.162C195.151 183.162 203.05 175.718 203.05 166.535C203.05 157.353 195.151 149.909 185.405 149.909C175.66 149.909 167.76 157.353 167.76 166.535C167.76 175.718 175.66 183.162 185.405 183.162Z" fill="white"/>
<path d="M154.527 336.129H81.3C86.4196 310.047 85.2417 278.552 81.3 244.682H154.527C150.69 278.552 149.543 310.047 154.527 336.129Z" fill="#E6E6E6"/>
<path d="M118.355 304.538C128.1 304.538 136 297.094 136 287.911C136 278.728 128.1 271.284 118.355 271.284C108.609 271.284 100.71 278.728 100.71 287.911C100.71 297.094 108.609 304.538 118.355 304.538Z" fill="white"/>
<path d="M263.044 220.573H189.817C194.936 194.491 193.759 162.996 189.817 129.125H263.044C259.207 162.996 258.06 194.491 263.044 220.573Z" fill="#E6E6E6"/>
<path d="M226.871 188.982C236.616 188.982 244.516 181.538 244.516 172.355C244.516 163.172 236.616 155.728 226.871 155.728C217.126 155.728 209.226 163.172 209.226 172.355C209.226 181.538 217.126 188.982 226.871 188.982Z" fill="white"/>
<path d="M263.044 216.416H189.817C194.936 190.334 193.759 158.839 189.817 124.969H263.044C259.207 158.839 258.06 190.334 263.044 216.416Z" fill="#E6E6E6"/>
<path d="M226.871 184.825C236.616 184.825 244.516 177.381 244.516 168.198C244.516 159.016 236.616 151.572 226.871 151.572C217.126 151.572 209.226 159.016 209.226 168.198C209.226 177.381 217.126 184.825 226.871 184.825Z" fill="white"/>
<path d="M263.044 220.573H189.817C194.936 194.491 193.759 162.996 189.817 129.125H263.044C259.207 162.996 258.06 194.491 263.044 220.573Z" fill="#E6E6E6"/>
<path d="M226.871 188.982C236.616 188.982 244.516 181.538 244.516 172.355C244.516 163.172 236.616 155.728 226.871 155.728C217.126 155.728 209.226 163.172 209.226 172.355C209.226 181.538 217.126 188.982 226.871 188.982Z" fill="white"/>
<path d="M279.806 209.765H39.8343V234.705H279.806V209.765Z" fill="#E6E6E6"/>
<path d="M279.806 333.635H39.8343V358.575H279.806V333.635Z" fill="#E6E6E6"/>
<path d="M279.806 457.504H39.8343V482.445H279.806V457.504Z" fill="#E6E6E6"/>
<path d="M697.248 558.685L637.464 518.841C657.627 500.332 675.966 473.978 693.504 444.181L753.288 484.026C729.399 509.591 709.163 534.68 697.248 558.685Z" fill="#FFF1BD"/>
<path d="M697.264 516.264C707.009 516.264 714.909 508.82 714.909 499.637C714.909 490.454 707.009 483.01 697.264 483.01C687.519 483.01 679.619 490.454 679.619 499.637C679.619 508.82 687.519 516.264 697.264 516.264Z" fill="white"/>
<path d="M408.855 376.865H402.292C402.061 376.865 401.84 376.951 401.677 377.105C401.514 377.258 401.422 377.467 401.422 377.684V380.399C401.422 380.506 401.445 380.613 401.488 380.712C401.532 380.812 401.596 380.902 401.677 380.978C401.758 381.054 401.854 381.115 401.959 381.156C402.065 381.197 402.178 381.218 402.292 381.218H403.38V385.285H407.767V381.218H408.855C409.085 381.218 409.307 381.132 409.47 380.978C409.633 380.825 409.725 380.616 409.725 380.399V377.684C409.725 377.467 409.633 377.258 409.47 377.105C409.307 376.951 409.085 376.865 408.855 376.865Z" fill="#E6E6E6"/>
<path d="M415.428 401.705C411.409 396.163 409.354 389.565 409.558 382.856C409.562 382.701 409.508 382.55 409.407 382.428C409.306 382.306 409.163 382.221 409.003 382.187V381.014H402.072V382.171H401.976C401.883 382.171 401.791 382.188 401.704 382.222C401.618 382.256 401.54 382.305 401.474 382.368C401.408 382.43 401.356 382.504 401.32 382.585C401.284 382.667 401.266 382.754 401.266 382.842C401.266 382.858 401.267 382.874 401.268 382.89C401.908 389.737 399.948 396.575 395.737 402.186C395.493 402.513 395.369 402.906 395.382 403.305L396.14 425.395C396.158 425.888 396.378 426.355 396.752 426.699C397.127 427.043 397.629 427.237 398.152 427.241H413.828C414.358 427.237 414.864 427.038 415.24 426.687C415.616 426.336 415.832 425.861 415.842 425.363L416.134 403.915C416.142 403.128 415.896 402.357 415.428 401.705Z" fill="#FFF1BD"/>
<path opacity="0.2" d="M407.487 377.749C407.487 378.218 407.289 378.668 406.937 378.999C406.585 379.331 406.107 379.518 405.609 379.518C405.112 379.518 404.634 379.331 404.282 378.999C403.93 378.668 403.732 378.218 403.732 377.749" fill="black"/>
<path d="M412.374 405.961H399.141V414.275H412.374V405.961Z" fill="white"/>
<path d="M616.527 463.16H604.243C603.811 463.16 603.396 463.322 603.091 463.61C602.786 463.898 602.614 464.288 602.614 464.695V469.776C602.614 470.183 602.786 470.573 603.091 470.861C603.396 471.149 603.811 471.311 604.243 471.311H606.278V478.923H614.491V471.311H616.527C616.959 471.311 617.373 471.149 617.679 470.861C617.984 470.573 618.156 470.183 618.156 469.776V464.695C618.156 464.288 617.984 463.898 617.679 463.61C617.373 463.322 616.959 463.16 616.527 463.16Z" fill="#E6E6E6"/>
<path d="M628.831 509.66C621.308 499.287 617.462 486.936 617.844 474.377C617.851 474.087 617.751 473.804 617.561 473.575C617.372 473.347 617.104 473.188 616.804 473.124V470.929H603.83V473.094H603.652C603.477 473.094 603.304 473.126 603.142 473.19C602.981 473.253 602.834 473.346 602.711 473.462C602.587 473.579 602.489 473.717 602.423 473.869C602.356 474.022 602.322 474.185 602.322 474.35C602.322 474.38 602.323 474.411 602.326 474.441C603.348 487.867 599.896 499.906 591.972 510.561C591.516 511.173 591.283 511.908 591.308 512.656L592.726 554.006C592.76 554.928 593.171 555.802 593.873 556.446C594.575 557.09 595.513 557.453 596.493 557.461H625.838C626.828 557.453 627.776 557.081 628.48 556.425C629.184 555.768 629.588 554.878 629.606 553.945L630.153 513.797C630.169 512.324 629.708 510.88 628.831 509.66Z" fill="#FFF1BD"/>
<path opacity="0.2" d="M613.966 464.816C613.966 465.694 613.596 466.536 612.937 467.157C612.278 467.778 611.384 468.127 610.452 468.127C609.521 468.127 608.627 467.778 607.968 467.157C607.309 466.536 606.939 465.694 606.939 464.816" fill="black"/>
<path d="M624.186 523.396H598.643C598.265 523.396 597.891 523.473 597.548 523.621C597.204 523.77 596.899 523.987 596.653 524.258C596.407 524.528 596.225 524.845 596.122 525.188C596.018 525.531 595.994 525.89 596.051 526.242L599.911 549.884H622.075L626.763 526.322C626.834 525.965 626.821 525.598 626.724 525.246C626.628 524.895 626.45 524.568 626.204 524.289C625.958 524.009 625.649 523.784 625.301 523.63C624.952 523.476 624.571 523.396 624.186 523.396Z" fill="white"/>
<path d="M581.478 558.62H508.251C513.371 532.538 512.193 501.044 508.251 467.173H581.478C577.641 501.044 576.494 532.538 581.478 558.62Z" fill="#FFF1BD"/>
<path d="M545.305 527.029C555.051 527.029 562.95 519.585 562.95 510.403C562.95 501.22 555.051 493.776 545.305 493.776C535.56 493.776 527.661 501.22 527.661 510.403C527.661 519.585 535.56 527.029 545.305 527.029Z" fill="white"/>
<path d="M281.963 270.823L298.401 269.415L308.863 245.476L290.182 235.618L281.963 270.823Z" fill="#FFB8B8"/>
<path d="M432.828 336.543C433.374 335.258 433.589 333.87 433.455 332.491C433.32 331.113 432.84 329.785 432.053 328.616C431.267 327.447 430.197 326.471 428.932 325.768C427.667 325.065 426.242 324.656 424.776 324.574L399.253 323.139L395.495 334.915L421.77 341.715C423.965 342.283 426.306 342.07 428.346 341.116C430.385 340.162 431.981 338.534 432.828 336.543Z" fill="#FFB8B8"/>
<path d="M405.421 341.912L405.14 319.816L348.447 311.292L304.771 264.091C302.498 261.635 299.358 260.038 295.933 259.597C292.507 259.155 289.027 259.899 286.138 261.69C284.389 262.774 282.914 264.207 281.818 265.888C280.721 267.568 280.03 269.455 279.792 271.415C279.555 273.375 279.777 275.36 280.443 277.231C281.109 279.101 282.203 280.81 283.648 282.238L319.68 324.022L405.421 341.912Z" fill="#575A89"/>
<path d="M269.26 590.485H284.204L321.272 432.564L359.673 481.349L382.09 586.964H396.287L393.298 473.604L343.235 352.499H293.918C280.441 375.482 269.869 399.173 281.963 423.613L269.26 590.485Z" fill="#2F2E41"/>
<path d="M372.929 600.077C372.764 600.575 372.713 601.101 372.78 601.619C372.847 602.137 373.031 602.636 373.319 603.082C373.606 603.528 373.992 603.911 374.449 604.206C374.906 604.501 375.425 604.7 375.97 604.792L412.539 610.907C413.984 611.156 415.476 610.898 416.733 610.182C417.991 609.466 418.927 608.342 419.365 607.021C419.791 605.758 419.732 604.395 419.197 603.169C418.662 601.944 417.686 600.936 416.44 600.321C408.4 596.431 401.48 590.762 396.273 583.799C392.254 587.326 387.762 586.994 382.991 584.395L377.932 584.991L372.929 600.077Z" fill="#2F2E41"/>
<path d="M262.34 600.077C262.175 600.575 262.124 601.101 262.192 601.619C262.259 602.137 262.442 602.636 262.73 603.082C263.018 603.528 263.403 603.911 263.86 604.206C264.318 604.501 264.836 604.7 265.382 604.792L301.951 610.907C303.396 611.156 304.887 610.898 306.145 610.182C307.402 609.466 308.338 608.342 308.776 607.021C309.203 605.758 309.143 604.395 308.608 603.169C308.073 601.944 307.097 600.936 305.852 600.321C297.811 596.431 290.891 590.762 285.685 583.799C281.665 587.326 277.173 586.994 272.403 584.395L267.343 584.991L262.34 600.077Z" fill="#2F2E41"/>
<path d="M309.236 254.277C320.791 254.277 330.158 245.45 330.158 234.562C330.158 223.674 320.791 214.847 309.236 214.847C297.681 214.847 288.314 223.674 288.314 234.562C288.314 245.45 297.681 254.277 309.236 254.277Z" fill="#FFB8B8"/>
<path d="M290.556 357.779L345.103 356.371L329.083 308.863C339.039 293.825 329.019 278.802 314.84 263.782L303.632 256.741L285.699 255.333C277.934 263.162 273.686 273.518 273.843 284.232C274.198 307.175 278.509 332.151 290.556 357.779Z" fill="#575A89"/>
<path d="M415.88 389.758C416.919 388.779 417.696 387.582 418.148 386.265C418.599 384.949 418.712 383.549 418.477 382.183C418.242 380.817 417.666 379.523 416.796 378.408C415.926 377.293 414.788 376.388 413.474 375.769L390.607 364.989L382.236 374.422L403.554 390.414C405.336 391.75 407.577 392.422 409.85 392.301C412.123 392.18 414.27 391.275 415.88 389.758Z" fill="#FFB8B8"/>
<path d="M388.441 384.535L397.408 364.116L348.844 335.264L328.395 275.678C327.331 272.578 325.111 269.946 322.145 268.271C319.18 266.595 315.671 265.989 312.267 266.564C310.207 266.913 308.252 267.683 306.543 268.822C304.833 269.96 303.409 271.439 302.373 273.153C301.336 274.867 300.711 276.774 300.543 278.741C300.375 280.707 300.667 282.684 301.399 284.533L317.082 336.304L388.441 384.535Z" fill="#575A89"/>
<path d="M274.864 226.817C274.864 234.488 280.151 246.368 286.82 251.46C291.306 254.887 297.236 254.742 299.522 250.052C301.868 245.24 309.952 233.931 324.181 226.817C343.148 217.333 317.454 201.107 299.522 203.581C286.048 205.44 274.864 213.984 274.864 226.817Z" fill="#2F2E41"/>
<path d="M287.567 216.255C295.82 216.255 302.511 209.95 302.511 202.173C302.511 194.396 295.82 188.091 287.567 188.091C279.313 188.091 272.622 194.396 272.622 202.173C272.622 209.95 279.313 216.255 287.567 216.255Z" fill="#2F2E41"/>
<path d="M304.753 197.244C304.751 193.694 303.326 190.276 300.762 187.674C298.199 185.072 294.686 183.48 290.929 183.216C291.301 183.19 291.672 183.162 292.05 183.162C296.014 183.162 299.815 184.646 302.617 187.287C305.42 189.928 306.994 193.51 306.994 197.244C306.994 200.979 305.42 204.561 302.617 207.202C299.815 209.843 296.014 211.326 292.05 211.326C291.672 211.326 291.301 211.299 290.929 211.273C294.686 211.009 298.199 209.416 300.762 206.815C303.326 204.213 304.751 200.795 304.753 197.244Z" fill="#2F2E41"/>
<path d="M309.61 241.603C311.467 241.603 312.972 239.711 312.972 237.378C312.972 235.045 311.467 233.154 309.61 233.154C307.753 233.154 306.247 235.045 306.247 237.378C306.247 239.711 307.753 241.603 309.61 241.603Z" fill="#FFB8B8"/>
<path d="M733.032 564.66H500.394L451.131 345.216H409.088V335.37H459.601L508.864 554.813H733.032V564.66Z" fill="#3F3D56"/>
<path d="M534.486 604.75C546.853 604.75 556.878 595.303 556.878 583.65C556.878 571.996 546.853 562.55 534.486 562.55C522.119 562.55 512.093 571.996 512.093 583.65C512.093 595.303 522.119 604.75 534.486 604.75Z" fill="#3F3D56"/>
<path d="M701.683 604.75C714.05 604.75 724.075 595.303 724.075 583.65C724.075 571.996 714.05 562.55 701.683 562.55C689.316 562.55 679.29 571.996 679.29 583.65C679.29 595.303 689.316 604.75 701.683 604.75Z" fill="#3F3D56"/>
<path d="M728.79 560.023H502.447L462.511 374.054H766.268C767.818 374.054 769.35 374.37 770.757 374.981C772.165 375.593 773.416 376.484 774.423 377.594C775.431 378.704 776.171 380.006 776.593 381.411C777.016 382.817 777.11 384.292 776.87 385.734L739.39 551.481C739.004 553.866 737.721 556.04 735.775 557.608C733.829 559.176 731.351 560.033 728.79 560.023ZM504.905 557.21H728.79C730.638 557.217 732.427 556.598 733.831 555.467C735.235 554.335 736.161 552.765 736.44 551.044L773.919 385.298C774.093 384.256 774.025 383.192 773.72 382.177C773.416 381.163 772.882 380.223 772.154 379.422C771.427 378.62 770.525 377.977 769.508 377.536C768.492 377.095 767.387 376.867 766.268 376.867H466.135L504.905 557.21Z" fill="#3F3D56"/>
<path d="M546.449 559.428L520.295 375.689L523.24 375.231L549.394 558.969L546.449 559.428Z" fill="#3F3D56"/>
<path d="M691.873 558.017L688.925 557.567L714.315 375.235L717.263 375.685L691.873 558.017Z" fill="#3F3D56"/>
<path d="M622.586 375.46H619.601V559.198H622.586V375.46Z" fill="#3F3D56"/>
<path d="M477.762 424.694L477.755 427.508L766.763 428.167L766.77 425.354L477.762 424.694Z" fill="#3F3D56"/>
<path d="M746.375 511.602L492.476 513.238L492.496 516.051L746.396 514.416L746.375 511.602Z" fill="#3F3D56"/>
<path d="M413.567 347.326C422.636 347.326 429.988 343.548 429.988 338.886C429.988 334.225 422.636 330.446 413.567 330.446C404.497 330.446 397.145 334.225 397.145 338.886C397.145 343.548 404.497 347.326 413.567 347.326Z" fill="#3F3D56"/>
</g>
<defs>
<clipPath id="clip0_4_126">
<rect width="777" height="611" fill="white"/>
</clipPath>
</defs>
</svg>
